<?xml version="1.0" standalone="no"?>
<!DOCTYPE svg PUBLIC "-//W3C//DTD SVG 20010904//EN"
 "http://www.w3.org/TR/2001/REC-SVG-20010904/DTD/svg10.dtd">
<svg version="1.0" xmlns="http://www.w3.org/2000/svg"
 width="460.000000pt" height="460.000000pt" viewBox="0 0 460.000000 460.000000"
 preserveAspectRatio="xMidYMid meet">

<g transform="translate(0.000000,460.000000) scale(0.100000,-0.100000)"
fill="#000000" stroke="none">
<path d="M2040 3693 c-52 -9 -163 -54 -208 -85 -58 -38 -117 -101 -143 -151
-27 -51 -52 -154 -45 -183 6 -23 6 -23 -57 -17 -47 4 -78 1 -117 -12 -53 -18
-64 -25 -129 -82 -77 -67 -132 -204 -144 -360 -8 -89 30 -311 63 -373 17 -31
12 -37 -37 -45 -39 -6 -57 -16 -94 -54 -137 -136 -89 -394 97 -522 47 -32 79
-37 88 -14 3 9 -8 25 -32 42 -59 44 -102 94 -131 153 -34 72 -37 196 -5 250
32 55 77 80 144 80 l58 0 1 -117 c6 -507 194 -918 526 -1154 177 -126 361
-172 581 -146 82 10 254 69 254 87 0 4 6 7 14 7 41 0 274 200 319 273 11 19
23 37 26 40 46 41 191 346 191 403 0 16 12 27 43 41 48 22 148 102 193 155 65
76 95 160 95 265 0 92 -24 152 -91 225 -43 48 -43 52 6 116 41 54 92 169 108
242 21 96 20 218 -3 329 -76 357 -324 510 -926 569 -88 9 -176 18 -195 20
-185 23 -378 30 -450 18z m-130 -490 c8 -3 36 -21 61 -40 26 -18 50 -33 54
-33 5 0 23 -11 41 -25 39 -30 227 -129 264 -139 14 -4 39 -13 55 -21 65 -28
82 -34 125 -44 25 -5 70 -17 100 -25 79 -23 230 -29 325 -12 44 7 81 12 83 11
2 -1 -2 -31 -8 -66 -30 -191 12 -352 106 -396 30 -15 38 -15 76 -2 24 8 70 14
103 14 75 0 134 -34 182 -103 115 -169 22 -375 -223 -493 l-51 -24 -32 -102
c-114 -358 -375 -638 -665 -712 -246 -64 -521 16 -711 206 -61 61 -148 167
-178 218 -145 245 -208 479 -208 777 0 181 8 243 46 390 67 258 215 512 366
631 31 24 36 25 54 11 11 -8 27 -17 35 -21z"/>
<path d="M2477 2558 c-98 -9 -155 -23 -143 -35 3 -3 2 -11 -4 -18 -13 -15 -1
-55 16 -55 8 0 47 9 87 20 186 52 300 47 384 -17 57 -44 91 -38 47 8 -84 88
-189 114 -387 97z"/>
<path d="M1690 2491 c-81 -25 -162 -94 -177 -149 -10 -40 5 -36 60 16 69 65
109 76 239 67 88 -6 99 -5 123 13 l25 20 -26 21 c-23 18 -40 21 -123 20 -53 0
-107 -4 -121 -8z"/>
<path d="M2175 2318 c-2 -7 -3 -31 -3 -53 2 -45 -8 -161 -18 -203 -3 -15 -19
-66 -35 -114 -31 -93 -37 -167 -16 -208 14 -28 92 -90 112 -90 8 0 19 9 25 20
9 16 6 23 -12 37 -71 57 -80 71 -73 116 4 23 16 62 26 86 46 105 75 332 50
394 -11 28 -48 38 -56 15z"/>
<path d="M2670 2200 c-91 -35 -135 -37 -195 -8 -38 19 -48 20 -55 9 -4 -8 -6
-20 -3 -26 8 -22 99 -65 137 -65 83 0 232 76 212 109 -9 14 -9 15 -96 -19z"/>
<path d="M1784 2195 c-18 -13 -18 -14 1 -35 42 -46 98 -61 181 -48 32 5 65 15
74 22 8 7 23 16 33 19 19 7 33 34 24 44 -4 3 -33 -2 -65 -11 -80 -22 -159 -21
-199 3 -27 17 -34 18 -49 6z"/>
<path d="M2370 1437 c-53 -26 -79 -32 -140 -34 -41 -1 -78 -2 -82 -2 -5 -1 -8
-10 -8 -21 0 -20 6 -22 77 -34 50 -8 150 12 214 45 48 24 59 34 59 54 0 21 -5
25 -27 24 -16 0 -57 -15 -93 -32z"/>
</g>
</svg>
